<svg xmlns="http://www.w3.org/2000/svg" xmlns:xlink="http://www.w3.org/1999/xlink" version="1.1" id="Layer_1" x="0px" y="0px" width="50px" height="50px" viewBox="0 0 50 50" enable-background="new 0 0 50 50" xml:space="preserve">
<g id="location">
	<path fill="#000000" d="M40.891,146.444c-2.402,0-4.357,1.955-4.357,4.356c0,2.402,1.955,4.357,4.357,4.357   c2.401,0,4.356-1.955,4.356-4.357C45.247,148.399,43.292,146.444,40.891,146.444z M40.891,154.158   c-1.852,0-3.357-1.506-3.357-3.357c0-1.851,1.506-3.356,3.357-3.356c1.851,0,3.356,1.506,3.356,3.356   C44.247,152.652,42.741,154.158,40.891,154.158z"/>
	<path fill="#000000" d="M40.891,143.554c-3.998,0-7.25,3.252-7.25,7.25c0,1.814,0.678,3.555,1.91,4.898l0.002,0.002l-0.001,0.001   l5.339,5.621l5.336-5.621v-0.001l0.002-0.002c1.232-1.344,1.912-3.084,1.912-4.898C48.141,146.806,44.889,143.554,40.891,143.554z    M45.635,154.864l-0.191,0.209c-0.035,0.05-0.086,0.098-0.137,0.146l0.002,0.001l-4.418,4.653l-4.418-4.654v-0.001   c-0.049-0.048-0.1-0.095-0.134-0.144l-0.159-0.211h-0.035c-0.972-1.136-1.504-2.568-1.504-4.061c0-3.445,2.803-6.25,6.25-6.25   c3.445,0,6.25,2.805,6.25,6.25C47.141,152.295,46.607,153.729,45.635,154.864z"/>
</g>
<g id="location_1_">
	<path fill="#000000" d="M25.707,8.574c-6.458,0-11.712,5.255-11.712,11.71c0,6.458,5.255,11.712,11.712,11.712   c6.454,0,11.711-5.255,11.711-11.712C37.418,13.829,32.161,8.574,25.707,8.574z M25.707,29.309c-4.977,0-9.025-4.048-9.025-9.025   c0-4.974,4.048-9.022,9.025-9.022c4.974,0,9.021,4.048,9.021,9.022C34.729,25.261,30.681,29.309,25.707,29.309z"/>
	<path fill="#000000" d="M25.707,0.804c-10.747,0-19.489,8.741-19.489,19.488c0,4.877,1.824,9.555,5.136,13.166l0.006,0.006   l-0.004,0.003l14.351,15.109L40.05,33.467v-0.003l0.006-0.006c3.312-3.611,5.14-8.289,5.14-13.166   C45.195,9.545,36.453,0.804,25.707,0.804z M38.459,31.206l-0.514,0.562c-0.095,0.134-0.231,0.263-0.368,0.394l0.005,0.002   L25.707,44.673L13.832,32.162v-0.003c-0.131-0.128-0.268-0.255-0.359-0.386l-0.428-0.567H12.95   c-2.612-3.053-4.044-6.903-4.044-10.914c0-9.261,7.535-16.8,16.802-16.8c9.261,0,16.8,7.539,16.8,16.8   C42.507,24.3,41.073,28.153,38.459,31.206z"/>
</g>
</svg>