<svg xmlns="http://www.w3.org/2000/svg" xmlns:xlink="http://www.w3.org/1999/xlink" version="1.1" id="Layer_1" x="0px" y="0px" width="50px" height="50px" viewBox="0 0 50 50" enable-background="new 0 0 50 50" xml:space="preserve">
<g id="camera_2_">
	<path fill="#000000" d="M44.274,15.449h-5.088c-0.773,0-1.397-0.625-1.397-1.398V12.85c0-2.312-1.882-4.193-4.19-4.193H18.062   c-2.312,0-4.193,1.881-4.193,4.193v1.201c0,0.772-0.627,1.398-1.396,1.398H6.547c-2.312,0-4.192,1.88-4.192,4.193v19.395   c0,2.312,1.88,4.191,4.192,4.191h37.727c2.312,0,4.19-1.88,4.19-4.191V19.642C48.465,17.329,46.586,15.449,44.274,15.449z    M6.547,18.244h5.925c2.308,0,4.191-1.881,4.191-4.193V12.85c0-0.773,0.626-1.396,1.398-1.396h15.537   c0.771,0,1.396,0.624,1.396,1.396v1.201c0,2.312,1.88,4.193,4.191,4.193h5.088c0.769,0,1.396,0.625,1.396,1.398v4.011H33.361   c-1.502-2.882-4.481-4.876-7.949-4.876c-3.47,0-6.453,1.992-7.952,4.876H5.149v-4.011C5.149,18.869,5.774,18.244,6.547,18.244z    M31.611,27.771c0,3.423-2.781,6.199-6.199,6.199c-3.424,0-6.205-2.776-6.205-6.199c0-3.42,2.781-6.201,6.205-6.201   C28.83,21.569,31.611,24.35,31.611,27.771z M44.274,40.433H6.547c-0.773,0-1.398-0.629-1.398-1.396V26.445h11.399   c-0.064,0.437-0.134,0.872-0.134,1.325c0,4.963,4.035,8.994,8.998,8.994c4.957,0,8.993-4.031,8.993-8.994   c0-0.454-0.068-0.889-0.135-1.325H45.67v12.591C45.67,39.804,45.043,40.433,44.274,40.433z"/>
	<path fill="#000000" d="M20.783,15.966h9.973c0.77,0,1.398-0.625,1.398-1.395c0-0.774-0.629-1.398-1.398-1.398h-9.973   c-0.774,0-1.398,0.624-1.398,1.398C19.384,15.34,20.006,15.966,20.783,15.966z"/>
</g>
</svg>