<svg xmlns="http://www.w3.org/2000/svg" xmlns:xlink="http://www.w3.org/1999/xlink" version="1.1" id="Layer_1" x="0px" y="0px" width="50px" height="50px" viewBox="0 0 50 50" enable-background="new 0 0 50 50" xml:space="preserve">
<g id="email_1_">
	<path fill="#000000" d="M44.397,8.892H5.5c-2.452,0-4.446,1.997-4.446,4.445v21.672c0,2.451,1.994,4.445,4.446,4.445h38.897   c2.451,0,4.445-1.994,4.445-4.445V13.337C48.843,10.889,46.849,8.892,44.397,8.892z M24.955,22.147L7.864,11.855h34.162   L24.955,22.147z M4.079,13.036l14.71,8.856L4.018,34.884V13.337C4.018,13.232,4.056,13.137,4.079,13.036z M21.456,23.496   l2.732,1.646c0.012,0.002,0.018,0.002,0.029,0.006c0.226,0.13,0.475,0.206,0.738,0.206c0.26,0,0.515-0.075,0.741-0.206   c0.005-0.006,0.014-0.003,0.022-0.006l2.993-1.804L43.66,36.493H6.678L21.456,23.496z M31.371,21.736l14.447-8.703   c0.021,0.102,0.061,0.197,0.061,0.304v21.162L31.371,21.736z"/>
</g>
</svg>